<svg width="25" height="25" viewBox="0 0 25 25" fill="none" xmlns="http://www.w3.org/2000/svg">
<path d="M17.9101 3.03812C18.1727 2.77547 18.4845 2.56713 18.8277 2.42499C19.1708 2.28285 19.5386 2.20969 19.9101 2.20969C20.2815 2.20969 20.6493 2.28285 20.9925 2.42499C21.3356 2.56713 21.6474 2.77547 21.9101 3.03812C22.1727 3.30076 22.381 3.61256 22.5232 3.95572C22.6653 4.29889 22.7385 4.66668 22.7385 5.03812C22.7385 5.40955 22.6653 5.77735 22.5232 6.12051C22.381 6.46367 22.1727 6.77547 21.9101 7.03812L8.41006 20.5381L2.91006 22.0381L4.41006 16.5381L17.9101 3.03812Z" stroke="white" stroke-width="2" stroke-linecap="round" stroke-linejoin="round"/>
</svg>
