<svg width="25" height="25" viewBox="0 0 25 25" fill="none" xmlns="http://www.w3.org/2000/svg">
<path d="M17.4185 2.26578H7.41849C4.65706 2.26578 2.41849 4.50435 2.41849 7.26578V17.2658C2.41849 20.0272 4.65706 22.2658 7.41849 22.2658H17.4185C20.1799 22.2658 22.4185 20.0272 22.4185 17.2658V7.26578C22.4185 4.50435 20.1799 2.26578 17.4185 2.26578Z" stroke="white" stroke-width="2" stroke-linecap="round" stroke-linejoin="round"/>
<path d="M16.4185 11.6358C16.5419 12.468 16.3997 13.318 16.0122 14.0648C15.6247 14.8116 15.0116 15.4172 14.2601 15.7955C13.5086 16.1737 12.6569 16.3054 11.8263 16.1717C10.9956 16.038 10.2282 15.6459 9.63332 15.0509C9.0384 14.456 8.64622 13.6887 8.51255 12.858C8.37889 12.0273 8.51055 11.1757 8.88881 10.4242C9.26707 9.67263 9.87267 9.05952 10.6195 8.67202C11.3663 8.28452 12.2162 8.14237 13.0485 8.26578C13.8974 8.39166 14.6833 8.78724 15.2902 9.39408C15.897 10.0009 16.2926 10.7869 16.4185 11.6358Z" stroke="white" stroke-width="2" stroke-linecap="round" stroke-linejoin="round"/>
<path d="M17.9185 6.76578H17.9285" stroke="white" stroke-width="2" stroke-linecap="round" stroke-linejoin="round"/>
</svg>
