<svg width="25" height="25" viewBox="0 0 25 25" fill="none" xmlns="http://www.w3.org/2000/svg">
<g clip-path="url(#clip0)">
<path d="M23.4185 3.26578C22.4609 3.94126 21.4006 4.45789 20.2785 4.79578C19.6762 4.10329 18.8758 3.61247 17.9855 3.3897C17.0952 3.16694 16.158 3.22297 15.3006 3.55023C14.4432 3.87749 13.7069 4.46018 13.1915 5.21949C12.676 5.97881 12.4062 6.87811 12.4185 7.79578V8.79578C10.6611 8.84135 8.91977 8.45159 7.3495 7.66122C5.77924 6.87086 4.42881 5.70441 3.4185 4.26578C3.4185 4.26578 -0.581505 13.2658 8.4185 17.2658C6.35902 18.6637 3.90565 19.3647 1.4185 19.2658C10.4185 24.2658 21.4185 19.2658 21.4185 7.76578C21.4176 7.48723 21.3908 7.20937 21.3385 6.93578C22.3591 5.92927 23.0793 4.65849 23.4185 3.26578V3.26578Z" stroke="white" stroke-width="2" stroke-linecap="round" stroke-linejoin="round"/>
</g>
<defs>
<clipPath id="clip0">
<rect width="24" height="24" fill="white" transform="translate(0.418495 0.265778)"/>
</clipPath>
</defs>
</svg>
